# Blender v2.77 (sub 0) OBJ File: ''
# www.blender.org
mtllib wheel.mtl
o wheel_ncl1_1
v 0.084292 -0.746732 -0.746733
v -0.084344 -0.746732 -0.746733
v -0.084344 -1.020049 -0.273335
v 0.084292 -1.020049 -0.273335
v -0.084344 -1.020049 0.273335
v 0.084292 -1.020049 0.273335
v -0.084344 -0.746732 0.746732
v 0.084292 -0.746732 0.746732
v 0.084292 -0.746732 0.746732
v -0.084344 -0.746732 0.746732
v -0.084344 -0.273335 1.020049
v 0.084292 -0.273335 1.020049
v -0.084344 0.273335 1.020049
v 0.084292 0.273335 1.020049
v -0.084344 0.746733 0.746732
v 0.084292 0.746733 0.746732
v 0.084292 0.746733 0.746732
v -0.084344 0.746733 0.746732
v -0.084344 1.020049 0.273335
v 0.084292 1.020049 0.273335
v -0.084344 1.020049 -0.273335
v 0.084292 1.020049 -0.273335
v -0.084344 0.746733 -0.746733
v 0.084292 0.746733 -0.746733
v 0.084292 0.746733 -0.746733
v -0.084344 0.746733 -0.746733
v -0.084344 0.273335 -1.020049
v 0.084292 0.273335 -1.020049
v -0.084344 -0.273335 -1.020049
v 0.084292 -0.273335 -1.020049
v -0.084344 -0.746732 -0.746733
v 0.084292 -0.746732 -0.746733
v 0.084292 -0.942924 -0.942924
v 0.084292 -1.288059 -0.345153
v -0.084344 -1.288059 -0.345153
v -0.084344 -0.942924 -0.942924
v 0.084292 -1.288059 0.345153
v -0.084344 -1.288059 0.345153
v -0.084344 -0.942924 0.942924
v 0.084292 -0.942924 0.942924
v 0.084292 -0.942924 0.942924
v 0.084292 -0.345153 1.288059
v -0.084344 -0.345153 1.288059
v -0.084344 -0.942924 0.942924
v -0.084344 0.345153 1.288059
v 0.084292 0.345153 1.288059
v 0.084292 0.942924 0.942924
v -0.084344 0.942924 0.942924
v 0.084292 0.942924 0.942924
v 0.084292 1.288059 0.345153
v -0.084344 1.288059 0.345153
v -0.084344 0.942924 0.942924
v -0.084344 1.288059 -0.345153
v 0.084292 1.288059 -0.345153
v -0.084344 0.942924 -0.942924
v 0.084292 0.942924 -0.942924
v 0.084292 0.942924 -0.942924
v 0.084292 0.345153 -1.288059
v -0.084344 0.345153 -1.288059
v -0.084344 0.942924 -0.942924
v 0.084292 -0.345153 -1.288059
v -0.084344 -0.345153 -1.288059
v -0.084344 -0.942924 -0.942924
v 0.084292 -0.942924 -0.942924
v 0.084292 -0.942924 -0.942924
v 0.084292 -0.746732 -0.746733
v 0.084292 -1.020049 -0.273335
v 0.084292 -1.288059 -0.345153
v -0.084344 -1.288059 -0.345153
v -0.084344 -1.020049 -0.273335
v -0.084344 -0.746732 -0.746733
v -0.084344 -0.942924 -0.942924
v 0.084292 -1.020049 0.273335
v 0.084292 -1.288059 0.345153
v -0.084344 -1.288059 0.345153
v -0.084344 -1.020049 0.273335
v 0.084292 -0.746732 0.746732
v 0.084292 -0.942924 0.942924
v -0.084344 -0.942924 0.942924
v -0.084344 -0.746732 0.746732
v 0.084292 -0.942924 0.942924
v 0.084292 -0.746732 0.746732
v 0.084292 -0.273335 1.020049
v 0.084292 -0.345153 1.288059
v -0.084344 -0.345153 1.288059
v -0.084344 -0.273335 1.020049
v -0.084344 -0.746732 0.746732
v -0.084344 -0.942924 0.942924
v 0.084292 0.273335 1.020049
v 0.084292 0.345153 1.288059
v -0.084344 0.345153 1.288059
v -0.084344 0.273335 1.020049
v 0.084292 0.746733 0.746732
v 0.084292 0.942924 0.942924
v -0.084344 0.942924 0.942924
v -0.084344 0.746733 0.746732
v 0.084292 0.942924 0.942924
v 0.084292 0.746733 0.746732
v 0.084292 1.020049 0.273335
v 0.084292 1.288059 0.345153
v -0.084344 1.288059 0.345153
v -0.084344 1.020049 0.273335
v -0.084344 0.746733 0.746732
v -0.084344 0.942924 0.942924
v 0.084292 1.020049 -0.273335
v 0.084292 1.288059 -0.345153
v -0.084344 1.288059 -0.345153
v -0.084344 1.020049 -0.273335
v 0.084292 0.746733 -0.746733
v 0.084292 0.942924 -0.942924
v -0.084344 0.942924 -0.942924
v -0.084344 0.746733 -0.746733
v 0.084292 0.942924 -0.942924
v 0.084292 0.746733 -0.746733
v 0.084292 0.273335 -1.020049
v 0.084292 0.345153 -1.288059
v -0.084344 0.345153 -1.288059
v -0.084344 0.273335 -1.020049
v -0.084344 0.746733 -0.746733
v -0.084344 0.942924 -0.942924
v 0.084292 -0.273335 -1.020049
v 0.084292 -0.345153 -1.288059
v -0.084344 -0.345153 -1.288059
v -0.084344 -0.273335 -1.020049
v 0.084292 -0.746732 -0.746733
v 0.084292 -0.942924 -0.942924
v -0.084344 -0.942924 -0.942924
v -0.084344 -0.746732 -0.746733
v 0.084292 -0.330766 -0.137012
v 0.084292 -0.330766 0.137012
v -0.084344 -0.330766 0.137012
v -0.084344 -0.330766 -0.137012
v -0.084344 -0.137012 0.330766
v 0.084292 -0.137012 0.330766
v 0.084292 -0.137012 0.330766
v 0.084292 0.137012 0.330766
v -0.084344 0.137012 0.330766
v -0.084344 -0.137012 0.330766
v -0.084344 0.330766 0.137012
v 0.084292 0.330766 0.137012
v 0.084292 0.330766 0.137012
v 0.084292 0.330766 -0.137012
v -0.084344 0.330766 -0.137012
v -0.084344 0.330766 0.137012
v -0.084344 0.137012 -0.330766
v 0.084292 0.137012 -0.330766
v 0.084292 0.137012 -0.330766
v 0.084292 -0.137012 -0.330766
v -0.084344 -0.137012 -0.330766
v -0.084344 0.137012 -0.330766
v -0.084344 -0.330766 -0.137012
v 0.084292 -0.330766 -0.137012
v 0.084292 -0.330766 0.137012
v 0.084292 -0.330766 -0.137012
v 0.084292 -0.000020 0.000020
v 0.084292 -0.137012 0.330766
v 0.084292 0.137012 0.330766
v 0.084292 0.330766 0.137012
v 0.084292 0.330766 -0.137012
v 0.084292 0.330766 0.137012
v 0.084292 0.137012 -0.330766
v 0.084292 -0.137012 -0.330766
v 0.084292 -0.330766 -0.137012
v -0.084344 -0.330766 -0.137012
v -0.084344 -0.330766 0.137012
v -0.084344 -0.000020 0.000020
v -0.084344 -0.137012 0.330766
v -0.084344 0.137012 0.330766
v -0.084344 0.330766 0.137012
v -0.084344 0.330766 0.137012
v -0.084344 0.330766 -0.137012
v -0.084344 0.137012 -0.330766
v -0.084344 -0.137012 -0.330766
v -0.084344 -0.330766 -0.137012
v -0.045939 0.896618 -0.487058
v -0.045939 0.870124 -0.532970
v -0.045939 0.273178 -0.188349
v -0.045939 0.299712 -0.142397
v -0.000026 0.856876 -0.555927
v -0.000026 0.259931 -0.211306
v 0.045887 0.273178 -0.188349
v 0.045887 0.870124 -0.532970
v 0.045887 0.299712 -0.142397
v 0.045887 0.896618 -0.487058
v -0.000026 0.909904 -0.464102
v -0.000026 0.312959 -0.119440
v -0.045939 0.532970 -0.870124
v -0.045939 0.487058 -0.896618
v -0.045939 0.142397 -0.299712
v -0.045939 0.188349 -0.273178
v -0.000026 0.119440 -0.312959
v -0.000026 0.464102 -0.909904
v 0.045887 0.487058 -0.896618
v 0.045887 0.142397 -0.299712
v 0.045887 0.188349 -0.273178
v 0.045887 0.532970 -0.870124
v -0.000026 0.555927 -0.856876
v -0.000026 0.211306 -0.259931
v -0.045939 0.026514 -1.020049
v -0.045939 -0.026514 -1.020049
v -0.045939 -0.026514 -0.330766
v -0.045939 0.026514 -0.330766
v -0.000026 -0.053008 -0.330766
v -0.000026 -0.053008 -1.020049
v 0.045887 -0.026514 -1.020049
v 0.045887 -0.026514 -0.330766
v 0.045887 0.026514 -0.330766
v 0.045887 0.026514 -1.020049
v -0.000026 0.053008 -1.020049
v -0.000026 0.053008 -0.330766
v -0.045939 0.487058 0.896618
v -0.045939 0.532970 0.870124
v -0.045939 0.188349 0.273178
v -0.045939 0.142397 0.299711
v -0.000026 0.555927 0.856876
v -0.000026 0.211306 0.259931
v 0.045887 0.188349 0.273178
v 0.045887 0.532970 0.870124
v 0.045887 0.142397 0.299711
v 0.045887 0.487058 0.896618
v -0.000026 0.464102 0.909904
v -0.000026 0.119440 0.312959
v -0.045939 0.870124 0.532970
v -0.045939 0.896618 0.487058
v -0.045939 0.299712 0.142397
v -0.045939 0.273178 0.188349
v -0.000026 0.312959 0.119440
v -0.000026 0.909904 0.464102
v 0.045887 0.299712 0.142397
v 0.045887 0.896618 0.487058
v 0.045887 0.870124 0.532970
v 0.045887 0.273178 0.188349
v -0.000026 0.856876 0.555927
v -0.000026 0.259931 0.211306
v -0.045939 1.020049 0.026514
v -0.045939 1.020049 -0.026514
v -0.045939 0.330766 -0.026514
v -0.045939 0.330766 0.026514
v -0.000026 1.020049 -0.053008
v -0.000026 0.330766 -0.053008
v 0.045887 0.330766 -0.026514
v 0.045887 1.020049 -0.026514
v 0.045887 0.330766 0.026514
v 0.045887 1.020049 0.026514
v -0.000026 1.020049 0.053008
v -0.000026 0.330766 0.053008
v -0.045939 -0.896618 0.487058
v -0.045939 -0.870124 0.532970
v -0.045939 -0.273178 0.188349
v -0.045939 -0.299711 0.142397
v -0.000026 -0.259931 0.211306
v -0.000026 -0.856876 0.555927
v -0.000026 -0.856876 0.555927
v 0.045887 -0.870124 0.532970
v 0.045887 -0.273178 0.188349
v -0.000026 -0.259931 0.211306
v 0.045887 -0.896618 0.487058
v 0.045887 -0.299711 0.142397
v -0.000026 -0.909904 0.464102
v -0.000026 -0.312959 0.119440
v -0.045939 -0.532970 0.870124
v -0.045939 -0.487058 0.896618
v -0.045939 -0.142397 0.299711
v -0.045939 -0.188349 0.273178
v -0.000026 -0.119440 0.312959
v -0.000026 -0.464102 0.909904
v 0.045887 -0.487058 0.896618
v 0.045887 -0.142397 0.299711
v 0.045887 -0.188349 0.273178
v 0.045887 -0.532970 0.870124
v -0.000026 -0.555927 0.856876
v -0.000026 -0.211306 0.259931
v -0.045939 -0.026514 1.020049
v -0.045939 0.026514 1.020049
v -0.045939 0.026514 0.330766
v -0.045939 -0.026514 0.330766
v -0.000026 0.053008 0.330766
v -0.000026 0.053008 1.020049
v 0.045887 0.026514 0.330766
v 0.045887 0.026514 1.020049
v 0.045887 -0.026514 1.020049
v 0.045887 -0.026514 0.330766
v -0.000026 -0.053008 1.020049
v -0.000026 -0.053008 0.330766
v -0.045939 -0.487058 -0.896618
v -0.045939 -0.532970 -0.870124
v -0.045939 -0.188349 -0.273178
v -0.045939 -0.142397 -0.299712
v -0.000026 -0.211306 -0.259931
v -0.000026 -0.555927 -0.856876
v 0.045887 -0.532970 -0.870124
v 0.045887 -0.188349 -0.273178
v 0.045887 -0.142397 -0.299712
v 0.045887 -0.487058 -0.896618
v -0.000026 -0.464102 -0.909904
v -0.000026 -0.119440 -0.312959
v -0.045939 -0.870124 -0.532970
v -0.045939 -0.896618 -0.487058
v -0.045939 -0.299711 -0.142397
v -0.045939 -0.273178 -0.188349
v -0.000026 -0.909904 -0.464102
v -0.000026 -0.312959 -0.119440
v 0.045887 -0.299711 -0.142397
v 0.045887 -0.896618 -0.487058
v 0.045887 -0.273178 -0.188349
v 0.045887 -0.870124 -0.532970
v -0.000026 -0.856876 -0.555927
v -0.000026 -0.259931 -0.211306
v -0.045939 -1.020049 -0.026514
v -0.045939 -1.020049 0.026514
v -0.045939 -0.330766 0.026514
v -0.045939 -0.330766 -0.026514
v -0.000026 -0.330766 0.053008
v -0.000026 -1.020049 0.053008
v 0.045887 -0.330766 0.026514
v 0.045887 -1.020049 0.026514
v 0.045887 -1.020049 -0.026514
v 0.045887 -0.330766 -0.026514
v -0.000026 -1.020049 -0.053008
v -0.000026 -0.330766 -0.053008
vt 0.5904 -0.0179
vt 0.6331 -0.1762
vt 0.3537 -0.3382
vt 0.2375 -0.2225
vt 0.2375 -0.2225
vt 0.3537 -0.3382
vt 0.6331 -0.1762
vt 0.5904 -0.0179
vt 0.1926 -0.6182
vt 0.0342 -0.5760
vt 0.0342 -0.5760
vt 0.1926 -0.6182
vt 0.1932 -0.9412
vt 0.0349 -0.9839
vt 0.0349 -0.9839
vt 0.1932 -0.9412
vt 0.5904 -0.0179
vt 0.6331 -0.1762
vt 0.3537 -0.3382
vt 0.2375 -0.2225
vt 0.2375 -0.2225
vt 0.3537 -0.3382
vt 0.6331 -0.1762
vt 0.5904 -0.0179
vt 0.1926 -0.6182
vt 0.0342 -0.5760
vt 0.0342 -0.5760
vt 0.1926 -0.6182
vt 0.1932 -0.9412
vt 0.0349 -0.9839
vt 0.0349 -0.9839
vt 0.1932 -0.9412
vt 0.5904 -0.0179
vt 0.6331 -0.1762
vt 0.3537 -0.3382
vt 0.2375 -0.2225
vt 0.2375 -0.2225
vt 0.3537 -0.3382
vt 0.6331 -0.1762
vt 0.5904 -0.0179
vt 0.1926 -0.6182
vt 0.0342 -0.5760
vt 0.0342 -0.5760
vt 0.1926 -0.6182
vt 0.1932 -0.9412
vt 0.0349 -0.9839
vt 0.0349 -0.9839
vt 0.1932 -0.9412
vt 0.5904 -0.0179
vt 0.6331 -0.1762
vt 0.3537 -0.3382
vt 0.2375 -0.2225
vt 0.2375 -0.2225
vt 0.3537 -0.3382
vt 0.6331 -0.1762
vt 0.5904 -0.0179
vt 0.1926 -0.6182
vt 0.0342 -0.5760
vt 0.0342 -0.5760
vt 0.1926 -0.6182
vt 0.1932 -0.9412
vt 0.0349 -0.9839
vt 0.0349 -0.9839
vt 0.1932 -0.9412
vt 0.3188 -0.8771
vt 0.5260 -0.9629
vt 0.5260 -0.6699
vt 0.2330 -0.6699
vt 0.3189 -0.4627
vt 0.5261 -0.3769
vt 0.3188 -0.4627
vt 0.5260 -0.3769
vt 0.2330 -0.6700
vt 0.3189 -0.8771
vt 0.5261 -0.9629
vt 0.5260 -0.9629
vt 0.3188 -0.8771
vt 0.5260 -0.6699
vt 0.2330 -0.6699
vt 0.3189 -0.4627
vt 0.5261 -0.3769
vt 0.5260 -0.3769
vt 0.3188 -0.4627
vt 0.2330 -0.6700
vt 0.3189 -0.8771
vt 0.5261 -0.9629
vt 0.9800 -0.9815
vt 0.8673 -0.9815
vt 0.8673 -0.6591
vt 0.9800 -0.6591
vt 0.8673 -0.3367
vt 0.9800 -0.3367
vt 0.8673 -0.0142
vt 0.9800 -0.0142
vt 0.9800 -0.9815
vt 0.8673 -0.9815
vt 0.8673 -0.6591
vt 0.9800 -0.6591
vt 0.8673 -0.3367
vt 0.9800 -0.3367
vt 0.8673 -0.0142
vt 0.9800 -0.0142
vt 0.9800 -0.9815
vt 0.8673 -0.9815
vt 0.8673 -0.6591
vt 0.9800 -0.6591
vt 0.8673 -0.3367
vt 0.9800 -0.3367
vt 0.8673 -0.0142
vt 0.9800 -0.0142
vt 0.9800 -0.9815
vt 0.8673 -0.9815
vt 0.8673 -0.6591
vt 0.9800 -0.6591
vt 0.8673 -0.3367
vt 0.9800 -0.3367
vt 0.8673 -0.0142
vt 0.9800 -0.0142
vt 0.8403 -0.9815
vt 0.8403 -0.6591
vt 0.7535 -0.6591
vt 0.7535 -0.9815
vt 0.8403 -0.3367
vt 0.7535 -0.3367
vt 0.7535 -0.0142
vt 0.8403 -0.0142
vt 0.8403 -0.9815
vt 0.8403 -0.6591
vt 0.7535 -0.6591
vt 0.7535 -0.9815
vt 0.7535 -0.3367
vt 0.8403 -0.3367
vt 0.8403 -0.0142
vt 0.7535 -0.0142
vt 0.8403 -0.9815
vt 0.8403 -0.6591
vt 0.7535 -0.6591
vt 0.7535 -0.9815
vt 0.7535 -0.3367
vt 0.8403 -0.3367
vt 0.7535 -0.0142
vt 0.8403 -0.0142
vt 0.8403 -0.9815
vt 0.8403 -0.6591
vt 0.7535 -0.6591
vt 0.7535 -0.9815
vt 0.8403 -0.3367
vt 0.7535 -0.3367
vt 0.7535 -0.0142
vt 0.8403 -0.0142
vt 0.0206 -0.1311
vt 0.1827 -0.1311
vt 0.1827 -0.0244
vt 0.0206 -0.0244
vt 0.3447 -0.0244
vt 0.3447 -0.1311
vt 0.0206 -0.1311
vt 0.1827 -0.1311
vt 0.1827 -0.0244
vt 0.0206 -0.0244
vt 0.3447 -0.0244
vt 0.3447 -0.1311
vt 0.0206 -0.1311
vt 0.1827 -0.1311
vt 0.1827 -0.0244
vt 0.0206 -0.0244
vt 0.3447 -0.0244
vt 0.3447 -0.1311
vt 0.0206 -0.1311
vt 0.1827 -0.1311
vt 0.1827 -0.0244
vt 0.0206 -0.0244
vt 0.3447 -0.0244
vt 0.3447 -0.1311
vt 0.6736 -0.9712
vt 0.6211 -0.9712
vt 0.6211 -0.2565
vt 0.6736 -0.2565
vt 0.5687 -0.9712
vt 0.5687 -0.2565
vt 0.6211 -0.2565
vt 0.6211 -0.9712
vt 0.6736 -0.2565
vt 0.6736 -0.9712
vt 0.7260 -0.9712
vt 0.7260 -0.2565
vt 0.6736 -0.9712
vt 0.6211 -0.9712
vt 0.6211 -0.2565
vt 0.6736 -0.2565
vt 0.5687 -0.2565
vt 0.5687 -0.9712
vt 0.6211 -0.9712
vt 0.6211 -0.2565
vt 0.6736 -0.2565
vt 0.6736 -0.9712
vt 0.7260 -0.9712
vt 0.7260 -0.2565
vt 0.6736 -0.9712
vt 0.6211 -0.9712
vt 0.6211 -0.2565
vt 0.6736 -0.2565
vt 0.5687 -0.2565
vt 0.5687 -0.9712
vt 0.6211 -0.9712
vt 0.6211 -0.2565
vt 0.6736 -0.2565
vt 0.6736 -0.9712
vt 0.7260 -0.9712
vt 0.7260 -0.2565
vt 0.6736 -0.9712
vt 0.6211 -0.9712
vt 0.6211 -0.2565
vt 0.6736 -0.2565
vt 0.5687 -0.9712
vt 0.5687 -0.2565
vt 0.6211 -0.2565
vt 0.6211 -0.9712
vt 0.6736 -0.2565
vt 0.6736 -0.9712
vt 0.7260 -0.9712
vt 0.7260 -0.2565
vt 0.6736 -0.9712
vt 0.6211 -0.9712
vt 0.6211 -0.2565
vt 0.6736 -0.2565
vt 0.5687 -0.2565
vt 0.5687 -0.9712
vt 0.6211 -0.2565
vt 0.6211 -0.9712
vt 0.6736 -0.9712
vt 0.6736 -0.2565
vt 0.7260 -0.9712
vt 0.7260 -0.2565
vt 0.6736 -0.9712
vt 0.6211 -0.9712
vt 0.6211 -0.2565
vt 0.6736 -0.2565
vt 0.5687 -0.9712
vt 0.5687 -0.2565
vt 0.6211 -0.2565
vt 0.6211 -0.9712
vt 0.6736 -0.2565
vt 0.6736 -0.9712
vt 0.7260 -0.9712
vt 0.7260 -0.2565
vt 0.6736 -0.9712
vt 0.6211 -0.9712
vt 0.6211 -0.2565
vt 0.6736 -0.2565
vt 0.5687 -0.2565
vt 0.5687 -0.9712
vt 0.5687 -0.9712
vt 0.6211 -0.9712
vt 0.6211 -0.2565
vt 0.5687 -0.2565
vt 0.6736 -0.9712
vt 0.6736 -0.2565
vt 0.7260 -0.9712
vt 0.7260 -0.2565
vt 0.6736 -0.9712
vt 0.6211 -0.9712
vt 0.6211 -0.2565
vt 0.6736 -0.2565
vt 0.5687 -0.2565
vt 0.5687 -0.9712
vt 0.6211 -0.9712
vt 0.6211 -0.2565
vt 0.6736 -0.2565
vt 0.6736 -0.9712
vt 0.7260 -0.9712
vt 0.7260 -0.2565
vt 0.6736 -0.9712
vt 0.6211 -0.9712
vt 0.6211 -0.2565
vt 0.6736 -0.2565
vt 0.5687 -0.2565
vt 0.5687 -0.9712
vt 0.6211 -0.2565
vt 0.6211 -0.9712
vt 0.6736 -0.9712
vt 0.6736 -0.2565
vt 0.7260 -0.9712
vt 0.7260 -0.2565
vt 0.6736 -0.9712
vt 0.6211 -0.9712
vt 0.6211 -0.2565
vt 0.6736 -0.2565
vt 0.5687 -0.2565
vt 0.5687 -0.9712
vt 0.6211 -0.9712
vt 0.6211 -0.2565
vt 0.6736 -0.2565
vt 0.6736 -0.9712
vt 0.7260 -0.9712
vt 0.7260 -0.2565
vt 0.6736 -0.9712
vt 0.6211 -0.9712
vt 0.6211 -0.2565
vt 0.6736 -0.2565
vt 0.5687 -0.9712
vt 0.5687 -0.2565
vt 0.6211 -0.2565
vt 0.6211 -0.9712
vt 0.6736 -0.2565
vt 0.6736 -0.9712
vt 0.7260 -0.9712
vt 0.7260 -0.2565
vt 0.6736 -0.9712
vt 0.6211 -0.9712
vt 0.6211 -0.2565
vt 0.6736 -0.2565
vt 0.5687 -0.2565
vt 0.5687 -0.9712
vt 0.6211 -0.2565
vt 0.6211 -0.9712
vt 0.6736 -0.9712
vt 0.6736 -0.2565
vt 0.7260 -0.9712
vt 0.7260 -0.2565
vn 1.0000 0.0000 0.0000
vn -1.0000 0.0000 0.0000
vn 0.0000 0.8660 0.5000
vn 0.0000 0.9659 0.2588
vn 0.0000 0.9659 -0.2588
vn 0.0000 0.8660 -0.5000
vn 0.0000 0.5000 -0.8660
vn 0.0000 0.2588 -0.9659
vn 0.0000 -0.2588 -0.9659
vn 0.0000 -0.5000 -0.8660
vn 0.0000 -0.8660 -0.5000
vn 0.0000 -0.9659 -0.2588
vn 0.0000 -0.9659 0.2588
vn 0.0000 -0.8660 0.5000
vn 0.0000 -0.5000 0.8660
vn 0.0000 -0.2588 0.9659
vn 0.0000 0.2588 0.9659
vn 0.0000 0.5000 0.8660
vn 0.0000 -1.0000 0.0000
vn 0.0000 -0.9239 0.3827
vn 0.0000 -0.7071 0.7071
vn 0.0000 0.0000 1.0000
vn 0.0000 0.3827 0.9239
vn 0.0000 0.7071 0.7071
vn 0.0000 1.0000 0.0000
vn 0.0000 0.9239 -0.3827
vn 0.0000 0.7071 -0.7071
vn 0.0000 0.0000 -1.0000
vn 0.0000 -0.3827 -0.9239
vn 0.0000 -0.7071 -0.7071
vn -0.8661 0.2500 0.4329
vn -0.8660 -0.2500 -0.4331
vn -0.8660 -0.2500 -0.4330
vn -0.8660 0.2500 0.4330
vn 0.8660 -0.2500 -0.4330
vn 0.8660 -0.2500 -0.4331
vn 0.8660 0.2500 0.4330
vn 0.8661 0.2499 0.4329
vn -0.8660 0.4331 0.2500
vn -0.8661 -0.4329 -0.2499
vn -0.8660 -0.4330 -0.2500
vn -0.8660 0.4330 0.2500
vn 0.8661 -0.4329 -0.2500
vn 0.8660 -0.4330 -0.2500
vn 0.8660 0.4330 0.2500
vn 0.8660 0.4331 0.2500
vn -0.8660 0.5001 0.0000
vn -0.8660 -0.5001 0.0000
vn 0.8660 -0.5001 0.0000
vn 0.8660 0.5001 0.0000
vn -0.8661 -0.4329 0.2500
vn -0.8660 0.4331 -0.2500
vn -0.8660 0.4330 -0.2500
vn -0.8660 -0.4330 0.2500
vn 0.8660 0.4330 -0.2500
vn 0.8660 0.4331 -0.2500
vn 0.8660 -0.4330 0.2500
vn 0.8661 -0.4329 0.2499
vn -0.8660 -0.2500 0.4331
vn -0.8661 0.2499 -0.4329
vn -0.8660 0.2500 -0.4330
vn -0.8660 -0.2500 0.4330
vn 0.8660 0.2500 -0.4330
vn 0.8661 0.2500 -0.4329
vn 0.8660 -0.2500 0.4331
vn 0.8660 -0.2500 0.4330
vn -0.8660 0.0000 0.5001
vn -0.8660 0.0000 -0.5001
vn 0.8660 0.0000 -0.5001
vn 0.8660 0.0000 0.5001
vn -0.8661 -0.2500 -0.4329
vn -0.8660 0.2500 0.4331
vn -0.5000 0.4330 0.7500
vn 0.5000 0.4330 0.7500
vn 0.8660 0.2500 0.4331
vn 0.8661 -0.2499 -0.4329
vn -0.8660 -0.4331 -0.2500
vn -0.8661 0.4329 0.2499
vn 0.8661 0.4329 0.2500
vn 0.8660 -0.4331 -0.2500
vn -0.8661 0.4329 -0.2500
vn -0.8660 -0.4331 0.2500
vn 0.8660 -0.4331 0.2500
vn 0.8661 0.4329 -0.2499
vn -0.8660 0.2500 -0.4331
vn -0.8661 -0.2499 0.4329
vn 0.8661 -0.2500 0.4329
vn 0.8660 0.2500 -0.4331
usemtl wheel.png
s off
f 65/1/1 66/2/1 67/3/1
f 65/1/1 67/3/1 68/4/1
f 69/5/2 70/6/2 71/7/2
f 69/5/2 71/7/2 72/8/2
f 68/4/1 67/3/1 73/9/1
f 68/4/1 73/9/1 74/10/1
f 75/11/2 70/6/2 69/5/2
f 75/11/2 76/12/2 70/6/2
f 74/10/1 73/9/1 77/13/1
f 74/10/1 77/13/1 78/14/1
f 79/15/2 76/12/2 75/11/2
f 79/15/2 80/16/2 76/12/2
f 81/17/1 82/18/1 83/19/1
f 81/17/1 83/19/1 84/20/1
f 85/21/2 86/22/2 87/23/2
f 85/21/2 87/23/2 88/24/2
f 84/20/1 83/19/1 89/25/1
f 84/20/1 89/25/1 90/26/1
f 91/27/2 86/22/2 85/21/2
f 91/27/2 92/28/2 86/22/2
f 90/26/1 89/25/1 93/29/1
f 90/26/1 93/29/1 94/30/1
f 95/31/2 92/28/2 91/27/2
f 95/31/2 96/32/2 92/28/2
f 97/33/1 98/34/1 99/35/1
f 97/33/1 99/35/1 100/36/1
f 101/37/2 102/38/2 103/39/2
f 101/37/2 103/39/2 104/40/2
f 100/36/1 99/35/1 105/41/1
f 100/36/1 105/41/1 106/42/1
f 107/43/2 102/38/2 101/37/2
f 107/43/2 108/44/2 102/38/2
f 106/42/1 105/41/1 109/45/1
f 106/42/1 109/45/1 110/46/1
f 111/47/2 108/44/2 107/43/2
f 111/47/2 112/48/2 108/44/2
f 113/49/1 114/50/1 115/51/1
f 113/49/1 115/51/1 116/52/1
f 117/53/2 118/54/2 119/55/2
f 117/53/2 119/55/2 120/56/2
f 116/52/1 115/51/1 121/57/1
f 116/52/1 121/57/1 122/58/1
f 123/59/2 118/54/2 117/53/2
f 123/59/2 124/60/2 118/54/2
f 122/58/1 121/57/1 125/61/1
f 122/58/1 125/61/1 126/62/1
f 127/63/2 124/60/2 123/59/2
f 127/63/2 128/64/2 124/60/2
f 153/65/1 154/66/1 155/67/1
f 156/68/1 153/65/1 155/67/1
f 157/69/1 156/68/1 155/67/1
f 158/70/1 157/69/1 155/67/1
f 159/71/1 160/72/1 155/67/1
f 161/73/1 159/71/1 155/67/1
f 162/74/1 161/73/1 155/67/1
f 163/75/1 162/74/1 155/67/1
f 164/76/2 165/77/2 166/78/2
f 165/77/2 167/79/2 166/78/2
f 167/79/2 168/80/2 166/78/2
f 168/80/2 169/81/2 166/78/2
f 170/82/2 171/83/2 166/78/2
f 171/83/2 172/84/2 166/78/2
f 172/84/2 173/85/2 166/78/2
f 173/85/2 174/86/2 166/78/2
s 1
f 1/87/3 2/88/3 3/89/4
f 1/87/3 3/89/4 4/90/4
f 4/90/4 3/89/4 5/91/5
f 4/90/4 5/91/5 6/92/5
f 6/92/5 5/91/5 7/93/6
f 6/92/5 7/93/6 8/94/6
f 9/95/7 10/96/7 11/97/8
f 9/95/7 11/97/8 12/98/8
f 12/98/8 11/97/8 13/99/9
f 12/98/8 13/99/9 14/100/9
f 14/100/9 13/99/9 15/101/10
f 14/100/9 15/101/10 16/102/10
f 17/103/11 18/104/11 19/105/12
f 17/103/11 19/105/12 20/106/12
f 20/106/12 19/105/12 21/107/13
f 20/106/12 21/107/13 22/108/13
f 22/108/13 21/107/13 23/109/14
f 22/108/13 23/109/14 24/110/14
f 25/111/15 26/112/15 27/113/16
f 25/111/15 27/113/16 28/114/16
f 28/114/16 27/113/16 29/115/17
f 28/114/16 29/115/17 30/116/17
f 30/116/17 29/115/17 31/117/18
f 30/116/17 31/117/18 32/118/18
f 33/119/11 34/120/12 35/121/12
f 33/119/11 35/121/12 36/122/11
f 34/120/12 37/123/13 38/124/13
f 34/120/12 38/124/13 35/121/12
f 37/123/13 39/125/14 38/124/13
f 37/123/13 40/126/14 39/125/14
f 41/127/15 42/128/16 43/129/16
f 41/127/15 43/129/16 44/130/15
f 42/128/16 45/131/17 43/129/16
f 42/128/16 46/132/17 45/131/17
f 46/132/17 47/133/18 48/134/18
f 46/132/17 48/134/18 45/131/17
f 49/135/3 50/136/4 51/137/4
f 49/135/3 51/137/4 52/138/3
f 50/136/4 53/139/5 51/137/4
f 50/136/4 54/140/5 53/139/5
f 54/140/5 55/141/6 53/139/5
f 54/140/5 56/142/6 55/141/6
f 57/143/7 58/144/8 59/145/8
f 57/143/7 59/145/8 60/146/7
f 58/144/8 61/147/9 62/148/9
f 58/144/8 62/148/9 59/145/8
f 61/147/9 63/149/10 62/148/9
f 61/147/9 64/150/10 63/149/10
f 129/151/19 130/152/20 131/153/20
f 129/151/19 131/153/20 132/154/19
f 130/152/20 133/155/21 131/153/20
f 130/152/20 134/156/21 133/155/21
f 135/157/22 136/158/23 137/159/23
f 135/157/22 137/159/23 138/160/22
f 136/158/23 139/161/24 137/159/23
f 136/158/23 140/162/24 139/161/24
f 141/163/25 142/164/26 143/165/26
f 141/163/25 143/165/26 144/166/25
f 142/164/26 145/167/27 143/165/26
f 142/164/26 146/168/27 145/167/27
f 147/169/28 148/170/29 149/171/29
f 147/169/28 149/171/29 150/172/28
f 148/170/29 151/173/30 149/171/29
f 148/170/29 152/174/30 151/173/30
f 175/175/31 176/176/32 177/177/33
f 175/175/31 177/177/33 178/178/34
f 176/176/32 179/179/10 180/180/10
f 176/176/32 180/180/10 177/177/33
f 179/179/10 181/181/35 180/180/10
f 179/179/10 182/182/36 181/181/35
f 182/182/36 183/183/37 181/181/35
f 182/182/36 184/184/38 183/183/37
f 185/185/18 175/175/31 178/178/34
f 184/184/38 186/186/18 183/183/37
f 184/184/38 185/185/18 186/186/18
f 185/185/18 178/178/34 186/186/18
f 187/187/39 188/188/40 189/189/41
f 187/187/39 189/189/41 190/190/42
f 188/188/40 191/191/11 189/189/41
f 188/188/40 192/192/11 191/191/11
f 192/192/11 193/193/43 194/194/44
f 192/192/11 194/194/44 191/191/11
f 193/193/43 195/195/45 194/194/44
f 193/193/43 196/196/46 195/195/45
f 197/197/3 187/187/39 190/190/42
f 196/196/46 198/198/3 195/195/45
f 196/196/46 197/197/3 198/198/3
f 197/197/3 190/190/42 198/198/3
f 199/199/47 200/200/48 201/201/48
f 199/199/47 201/201/48 202/202/47
f 200/200/48 203/203/19 201/201/48
f 200/200/48 204/204/19 203/203/19
f 204/204/19 205/205/49 206/206/49
f 204/204/19 206/206/49 203/203/19
f 205/205/49 207/207/50 206/206/49
f 205/205/49 208/208/50 207/207/50
f 209/209/25 199/199/47 202/202/47
f 208/208/50 210/210/25 207/207/50
f 209/209/25 202/202/47 210/210/25
f 208/208/50 209/209/25 210/210/25
f 211/211/51 212/212/52 213/213/53
f 211/211/51 213/213/53 214/214/54
f 212/212/52 215/215/6 216/216/6
f 212/212/52 216/216/6 213/213/53
f 215/215/6 217/217/55 216/216/6
f 215/215/6 218/218/56 217/217/55
f 218/218/56 219/219/57 217/217/55
f 218/218/56 220/220/58 219/219/57
f 221/221/14 211/211/51 214/214/54
f 220/220/58 222/222/14 219/219/57
f 220/220/58 221/221/14 222/222/14
f 221/221/14 214/214/54 222/222/14
f 223/223/59 224/224/60 225/225/61
f 223/223/59 225/225/61 226/226/62
f 224/224/60 227/227/7 225/225/61
f 224/224/60 228/228/7 227/227/7
f 228/228/7 229/229/63 227/227/7
f 228/228/7 230/230/64 229/229/63
f 230/230/64 231/231/65 232/232/66
f 230/230/64 232/232/66 229/229/63
f 233/233/15 223/223/59 226/226/62
f 231/231/65 234/234/15 232/232/66
f 233/233/15 226/226/62 234/234/15
f 231/231/65 233/233/15 234/234/15
f 235/235/67 236/236/68 237/237/68
f 235/235/67 237/237/68 238/238/67
f 236/236/68 239/239/28 240/240/28
f 236/236/68 240/240/28 237/237/68
f 239/239/28 241/241/69 240/240/28
f 239/239/28 242/242/69 241/241/69
f 242/242/69 243/243/70 241/241/69
f 242/242/69 244/244/70 243/243/70
f 245/245/22 235/235/67 238/238/67
f 244/244/70 246/246/22 243/243/70
f 244/244/70 245/245/22 246/246/22
f 245/245/22 238/238/67 246/246/22
f 247/247/71 248/248/72 249/249/34
f 247/247/71 249/249/34 250/250/33
f 248/248/72 251/251/73 249/249/34
f 248/248/72 252/252/73 251/251/73
f 253/253/74 254/254/75 255/255/37
f 253/253/74 255/255/37 256/256/74
f 254/254/75 257/257/76 258/258/35
f 254/254/75 258/258/35 255/255/37
f 259/259/10 247/247/71 250/250/33
f 257/257/76 260/260/10 258/258/35
f 259/259/10 250/250/33 260/260/10
f 257/257/76 259/259/10 260/260/10
f 261/261/77 262/262/78 263/263/42
f 261/261/77 263/263/42 264/264/41
f 262/262/78 265/265/3 263/263/42
f 262/262/78 266/266/3 265/265/3
f 266/266/3 267/267/79 268/268/45
f 266/266/3 268/268/45 265/265/3
f 267/267/79 269/269/44 268/268/45
f 267/267/79 270/270/80 269/269/44
f 271/271/11 261/261/77 264/264/41
f 270/270/80 272/272/11 269/269/44
f 271/271/11 264/264/41 272/272/11
f 270/270/80 271/271/11 272/272/11
f 273/273/48 274/274/47 275/275/47
f 273/273/48 275/275/47 276/276/48
f 274/274/47 277/277/25 275/275/47
f 274/274/47 278/278/25 277/277/25
f 278/278/25 279/279/50 277/277/25
f 278/278/25 280/280/50 279/279/50
f 280/280/50 281/281/49 282/282/49
f 280/280/50 282/282/49 279/279/50
f 283/283/19 273/273/48 276/276/48
f 281/281/49 284/284/19 282/282/49
f 281/281/49 283/283/19 284/284/19
f 283/283/19 276/276/48 284/284/19
f 285/285/81 286/286/82 287/287/54
f 285/285/81 287/287/54 288/288/53
f 286/286/82 289/289/14 287/287/54
f 286/286/82 290/290/14 289/289/14
f 290/290/14 291/291/83 292/292/57
f 290/290/14 292/292/57 289/289/14
f 291/291/83 293/293/55 292/292/57
f 291/291/83 294/294/84 293/293/55
f 295/295/6 285/285/81 288/288/53
f 294/294/84 296/296/6 293/293/55
f 295/295/6 288/288/53 296/296/6
f 294/294/84 295/295/6 296/296/6
f 297/297/85 298/298/86 299/299/62
f 297/297/85 299/299/62 300/300/61
f 298/298/86 301/301/15 302/302/15
f 298/298/86 302/302/15 299/299/62
f 301/301/15 303/303/66 302/302/15
f 301/301/15 304/304/87 303/303/66
f 304/304/87 305/305/63 303/303/66
f 304/304/87 306/306/88 305/305/63
f 307/307/7 297/297/85 300/300/61
f 306/306/88 308/308/7 305/305/63
f 306/306/88 307/307/7 308/308/7
f 307/307/7 300/300/61 308/308/7
f 309/309/68 310/310/67 311/311/67
f 309/309/68 311/311/67 312/312/68
f 310/310/67 313/313/22 311/311/67
f 310/310/67 314/314/22 313/313/22
f 314/314/22 315/315/70 313/313/22
f 314/314/22 316/316/70 315/315/70
f 316/316/70 317/317/69 318/318/69
f 316/316/70 318/318/69 315/315/70
f 319/319/28 309/309/68 312/312/68
f 317/317/69 320/320/28 318/318/69
f 319/319/28 312/312/68 320/320/28
f 317/317/69 319/319/28 320/320/28
